<mxfile
  host="Electron" 
  agent="Mozilla/5.0 (Macintosh; Intel Mac OS X 10_15_7) AppleWebKit/537.36 (KHTML, like Gecko) draw.io/25.0.2 Chrome/128.0.6613.186 Electron/32.2.5 Safari/537.36" 
  version="25.0.2"
  >
  <diagram
    name="-"
    >
    <mxGraphModel
      grid="1" 
      gridSize="10" 
      guides="1" 
      tooltips="1" 
      connect="1" 
      arrows="1" 
      fold="1" 
      page="1" 
      pageScale="1" 
      pageWidth="1" 
      pageHeight="1" 
      math="0" 
      shadow="0"
      >
      <root>
        <mxCell
          id="page"
          />
        <mxCell
          id="root" 
          parent="page"
          />
        <mxCell
          style="verticalAlign=top;aspect=fixed;align=center;spacingLeft=5;spacingRight=5;spacingBottom=5;strokeColor=none;" 
          id="shape_" 
          parent="root" 
          value=" " 
          vertex="1"
          >
          <mxGeometry
            as="geometry" 
            width="60" 
            height="62" 
            x="0" 
            y="0"
            />
          </mxCell>
        <mxCell
          style="sketch=0;html=1;verticalAlign=top;labelPosition=center;verticalLabelPosition=bottom;align=center;spacingTop=-6;fontSize=11;fontStyle=1;fontColor=#999999;shape=image;aspect=fixed;imageAspect=0;image=data:image/svg+xml,PHN2ZyB4bWxucz0iaHR0cDovL3d3dy53My5vcmcvMjAwMC9zdmciIGlkPSJzdmc4MjI5IiB2ZXJzaW9uPSIxLjEiIHZpZXdCb3g9IjAgMCAxMjkuNzMwNjUgMTM3LjAzODU5IiBoZWlnaHQ9IjEzNy4wMzg1OW1tIiB3aWR0aD0iMTI5LjczMDY1bW0iPiYjeGE7ICAmI3hhOyAgPGRlZnMgaWQ9ImRlZnM4MjI2Ii8+JiN4YTsgIDxnIHRyYW5zZm9ybT0idHJhbnNsYXRlKC00My4wNDM0MTEsLTc5Ljc3NDI3MikiIGlkPSJsYXllcjEiPiYjeGE7ICAgIDxwYXRoIGQ9Im0gOTMuMzU0MjMsMTY5Ljk3OTkzIHYgLTE4LjE0ODUxIGwgLTUwLjMxMDgxOSwzMi40NjY4MiA1MC4zMTA4MTksMzIuNTE0NjIgdiAtMTguMDU0ODcgaCA2My43NDk0NCBjIDQuNDY2ODksMCA3LjM2MTA5LC0zLjA0Njg5IDcuNDgwMTYsLTcuMTE2OTkgdiAtMTQuODI5ODQgYyAwLC0zLjIwNDQ0IC0yLjcxNzcsLTYuODMxMjMgLTYuOTQ0NjUsLTYuODMxMjMgeiBNIDEyMi40NjMyNSw5Ny45MjI3NzkgViA3OS43NzQyNzIgbCA1MC4zMTA4MiwzMi40NjY4MTggLTUwLjMxMDgyLDMyLjUxNDYyIFYgMTI2LjcwMDg0IEggNTguNzEzODA5IGMgLTQuNDY2ODg4LDAgLTcuMzYxMDg4LC0zLjA0Njg5IC03LjQ4MDE1NywtNy4xMTY5OSB2IC0xNC44Mjk4NCBjIDAsLTMuMjA0NDQgMi43MTc2OTksLTYuODMxMjMxIDYuOTQ0NjUxLC02LjgzMTIzMSB6IiBzdHlsZT0ib3BhY2l0eToxO2ZpbGw6IzQyODVmNDtmaWxsLW9wYWNpdHk6MTtzdHJva2U6bm9uZTtzdHJva2Utd2lkdGg6MC4yNjQ1ODNweDtzdHJva2UtbGluZWNhcDpidXR0O3N0cm9rZS1saW5lam9pbjptaXRlcjtzdHJva2Utb3BhY2l0eToxIiBpZD0icGF0aDgzNjMtMiIvPiYjeGE7ICA8L2c+JiN4YTs8L3N2Zz4;strokeColor=none;" 
          id="storage_transfer_service_" 
          parent="shape_" 
          value=" " 
          vertex="1"
          >
          <mxGeometry
            width="40" 
            height="42" 
            as="geometry" 
            x="10" 
            y="10"
            />
          </mxCell>
        </root>
      </mxGraphModel>
    </diagram>
  </mxfile>